<?xml version="1.0" standalone="no"?>
<!DOCTYPE svg PUBLIC "-//W3C//DTD SVG 20010904//EN"
 "http://www.w3.org/TR/2001/REC-SVG-20010904/DTD/svg10.dtd">
<svg version="1.0" xmlns="http://www.w3.org/2000/svg"
 width="300.000000pt" height="300.000000pt" viewBox="0 0 300.000000 300.000000"
 preserveAspectRatio="xMidYMid meet">
<metadata>
Created by potrace 1.10, written by Peter Selinger 2001-2011
</metadata>
<g transform="translate(0.000000,300.000000) scale(0.100000,-0.100000)"
fill="#000000" stroke="none">
<path d="M547 2786 c-20 -8 -44 -19 -52 -26 -22 -18 -18 -68 10 -138 14 -34
25 -63 25 -66 0 -2 -17 -6 -37 -10 -57 -9 -157 -67 -161 -92 -2 -11 15 -98 37
-193 22 -96 38 -178 35 -182 -3 -5 -14 -9 -25 -9 -23 0 -81 -28 -91 -44 -23
-34 4 -105 42 -113 26 -5 27 -6 28 -95 2 -107 15 -183 49 -293 32 -100 53
-143 90 -176 64 -60 209 -112 359 -130 52 -6 134 -24 182 -39 l87 -28 3 -45 3
-45 -128 -30 c-87 -21 -132 -27 -140 -20 -16 13 -51 1 -64 -23 -8 -16 -7 -26
6 -45 18 -28 47 -31 70 -8 9 9 62 27 118 41 56 13 110 26 120 29 16 5 18 0 15
-47 l-3 -53 -75 -12 c-463 -78 -596 -382 -241 -550 276 -131 736 -114 960 35
25 17 49 27 54 24 6 -3 7 -43 3 -98 -6 -80 -5 -93 9 -99 27 -10 63 -7 72 7 11
17 12 66 2 73 -5 3 -9 25 -9 49 l0 43 38 -10 c20 -6 80 -8 132 -6 113 6 149
20 275 108 66 46 316 224 374 266 5 4 -7 46 -18 62 -7 12 -24 10 -95 -8 -63
-16 -102 -20 -139 -15 -60 7 -416 122 -433 139 -7 6 -16 87 -23 191 -6 99 -14
209 -17 245 l-6 65 62 30 c34 16 73 43 87 59 24 29 25 34 21 145 -5 157 -15
171 -141 190 -102 16 -419 34 -527 29 l-100 -4 0 36 c0 55 28 127 60 154 16
13 49 31 72 40 38 14 94 22 408 57 46 5 87 12 91 17 5 4 5 25 2 48 l-5 41
-137 1 c-119 1 -499 -35 -574 -53 -21 -6 -25 0 -45 71 -43 144 -80 228 -118
264 -35 35 -36 35 -124 35 -86 0 -89 1 -82 20 22 60 -21 184 -68 196 -47 13
-283 9 -323 -5z m69 -29 c19 7 54 -69 53 -114 l-1 -38 -12 50 c-11 45 -32 95
-40 95 -2 0 5 -24 15 -52 10 -29 18 -68 19 -87 l0 -34 25 23 c29 27 33 79 10
120 -8 14 -14 28 -15 33 0 13 165 8 182 -5 17 -13 48 -95 48 -126 0 -36 -23
-51 -90 -58 -100 -11 -218 -8 -235 6 -15 12 -55 110 -55 135 0 32 19 13 35
-34 19 -59 61 -103 75 -81 5 8 10 22 10 31 0 29 -28 111 -47 132 -9 12 -11 17
-4 10 7 -6 19 -9 27 -6z m313 -92 c0 -13 -5 -7 -13 15 -23 62 -26 86 -6 45 11
-22 19 -49 19 -60z m-314 12 c22 -76 1 -81 -24 -6 -25 75 -26 86 -6 69 8 -7
22 -35 30 -63z m491 -132 c23 -18 10 -18 -36 0 -32 12 -33 14 -9 14 14 1 34
-6 45 -14z m-491 -28 c14 -20 17 -20 87 -6 40 7 80 13 88 12 8 -2 81 -4 163
-6 122 -3 150 -7 166 -21 23 -21 126 -329 166 -496 15 -63 34 -127 42 -143 11
-22 11 -28 1 -31 -7 -2 -29 -8 -48 -14 -19 -5 -68 -18 -108 -27 -40 -10 -71
-19 -69 -21 9 -9 170 24 178 37 7 11 11 11 17 2 6 -9 16 -10 38 -3 16 5 65 13
109 17 68 6 75 8 45 14 -45 9 163 1 295 -11 55 -5 132 -12 171 -16 67 -5 73
-8 111 -47 50 -53 54 -64 46 -139 -8 -78 -29 -102 -108 -118 -33 -7 -66 -16
-74 -20 -9 -4 -28 -13 -43 -21 -21 -9 -28 -20 -28 -40 0 -21 4 -27 15 -23 8 4
15 17 15 29 0 13 4 27 10 30 5 3 10 -3 10 -15 0 -28 24 -21 28 8 2 12 8 22 14
22 5 0 7 -7 4 -16 -4 -11 -1 -14 11 -12 9 2 20 14 24 28 5 17 7 19 8 7 1 -14
6 -17 24 -11 57 17 97 45 103 72 10 45 12 48 13 15 1 -25 -6 -37 -31 -56 -70
-52 -447 -213 -628 -268 -67 -20 -81 -21 -140 -11 -35 6 -66 16 -68 22 -2 5
-7 8 -12 5 -4 -3 -13 1 -19 9 -8 10 -4 22 19 50 16 21 32 46 35 56 7 23 -18
76 -43 89 -9 5 -89 9 -177 8 -177 -1 -235 8 -330 54 -70 34 -126 82 -151 130
-18 34 -34 201 -18 186 4 -4 9 -17 11 -29 2 -12 13 -33 25 -45 19 -21 23 -21
38 -8 14 12 15 25 9 68 -19 134 -20 142 -10 121 5 -12 13 -53 16 -92 9 -84 17
-101 39 -83 18 15 26 52 29 136 2 52 5 60 22 60 16 0 23 -13 36 -70 9 -38 22
-81 27 -95 l11 -25 0 26 c1 25 -15 127 -25 162 -3 9 -1 17 4 17 9 0 21 -53 37
-156 4 -26 11 -41 21 -41 18 0 18 25 -1 123 -13 71 -13 96 0 82 3 -3 11 -45
18 -93 10 -70 16 -89 30 -91 21 -3 21 0 2 105 -13 76 -13 103 0 90 2 -3 10
-46 16 -96 11 -79 15 -91 31 -90 19 1 20 -3 -2 121 -13 75 -13 83 -1 71 6 -6
16 -52 22 -103 7 -51 16 -87 20 -81 4 6 11 9 16 6 9 -6 5 43 -12 143 -4 24 -3
40 3 40 5 0 13 -26 16 -57 13 -108 17 -122 33 -116 16 6 15 37 -4 147 -4 26
-3 37 4 33 6 -4 13 -30 17 -59 13 -100 18 -118 34 -118 12 0 14 9 9 48 -18
144 -18 147 -8 131 6 -9 14 -49 17 -88 4 -39 11 -74 15 -77 5 -3 9 1 9 8 0 9
3 9 10 -2 14 -21 13 6 -4 100 -8 41 -10 81 -6 89 7 12 30 -111 30 -159 0 -13
7 -20 20 -20 24 0 23 9 -16 208 -42 215 -112 404 -153 415 -20 5 -20 5 0 -36
48 -92 122 -326 95 -297 -7 8 -28 62 -45 120 -42 135 -69 197 -88 205 -25 9
-26 -1 -3 -52 31 -68 90 -243 90 -267 0 -36 -16 -3 -39 79 -32 113 -80 224
-102 236 -26 13 -24 6 15 -88 38 -89 76 -206 76 -231 0 -33 -18 6 -49 107 -45
144 -74 207 -99 213 -19 5 -18 0 13 -73 37 -86 85 -231 85 -257 0 -32 -17 4
-43 93 -42 145 -79 228 -104 231 -21 4 -21 2 9 -63 33 -74 88 -236 88 -261 0
-32 -18 4 -44 93 -45 146 -83 231 -105 231 -17 0 -15 -7 15 -78 32 -74 84
-229 84 -249 0 -5 -4 -9 -10 -9 -5 0 -10 6 -10 13 0 21 -59 197 -87 259 -15
33 -33 58 -44 61 -24 6 -24 5 0 -42 20 -38 101 -266 101 -282 0 -5 -3 -9 -8
-9 -4 0 -20 42 -36 93 -45 148 -85 237 -107 237 -17 0 -15 -7 16 -80 28 -66
85 -230 85 -246 0 -2 -4 -4 -9 -4 -4 0 -24 51 -45 114 -39 124 -75 211 -83
203 -3 -3 12 -63 32 -134 20 -70 38 -136 40 -145 6 -29 -24 -21 -37 10 -40 98
-94 205 -114 223 -13 13 -24 20 -24 17 0 -3 16 -41 36 -84 46 -99 84 -210 76
-220 -4 -4 10 -4 31 -1 21 3 60 3 86 0 46 -5 47 -6 45 -37 -2 -17 -1 -22 2
-11 3 11 10 24 15 30 5 5 73 17 150 25 157 18 151 20 153 -48 l1 -37 -65 -11
c-36 -7 -81 -12 -100 -12 -36 0 -34 2 13 12 21 5 27 12 28 34 l1 27 7 -25 c6
-23 11 -25 52 -22 51 4 64 14 55 38 -5 13 -9 15 -18 6 -19 -19 -55 -14 -77 9
l-20 21 -15 -36 c-8 -20 -22 -36 -30 -36 -8 0 -27 -5 -41 -12 -24 -11 -25 -13
-8 -19 11 -5 1 -8 -30 -8 -40 -1 -49 2 -57 22 -8 20 -9 20 -10 2 -1 -15 -6
-10 -21 19 l-21 39 -106 -8 c-59 -5 -139 -9 -179 -11 -39 -1 -88 -7 -109 -13
-21 -6 -40 -9 -42 -6 -2 2 13 8 34 14 95 25 142 32 184 27 27 -3 35 -2 20 2
-21 7 -28 21 -52 113 -15 59 -39 130 -53 160 l-25 54 4 -42 c4 -42 3 -43 -25
-43 -32 0 -44 16 -54 77 -6 37 -4 43 18 58 13 8 49 24 80 35 51 18 59 18 97 5
31 -11 41 -12 38 -2 -3 6 -19 17 -36 23 -37 12 -34 24 4 16 13 -2 31 -14 39
-25z m612 -182 c47 -137 92 -315 98 -383 l5 -57 -11 45 c-64 282 -111 444
-150 522 -26 51 -23 62 3 13 12 -22 37 -85 55 -140z m-767 -57 c22 -50 39
-151 29 -170 -13 -24 -46 -23 -59 1 -19 37 -39 154 -29 173 14 25 47 22 59 -4z
m1060 -69 c-102 -15 -196 -28 -210 -28 l-25 1 25 9 c32 11 302 47 355 47 22 0
-43 -13 -145 -29z m273 4 c-3 -25 -2 -26 6 -7 11 25 66 36 155 33 58 -2 64 -7
44 -27 -17 -17 -47 -15 -54 3 -5 12 -10 10 -25 -10 -11 -13 -26 -22 -33 -19
-7 3 -19 -2 -26 -11 -14 -17 -50 -21 -50 -4 0 5 -4 8 -9 4 -13 -7 -34 33 -27
51 9 25 23 15 19 -13z m-56 -19 c5 -14 -53 -24 -132 -23 l-60 1 80 18 c88 20
107 20 112 4z m-122 -64 c-220 -25 -311 -33 -303 -25 8 8 338 43 408 43 25 0
-22 -8 -105 -18z m-164 -57 c-45 -36 -71 -95 -71 -165 0 -36 -4 -58 -11 -58
-8 0 -10 24 -8 73 5 81 27 124 83 158 44 27 47 23 7 -8z m-82 -14 c-18 -27
-33 -29 -37 -4 -2 16 3 21 24 23 25 2 25 1 13 -19z m-619 -19 c11 -6 20 -17
20 -24 0 -9 -22 -13 -82 -14 -46 -1 -94 -4 -108 -7 -14 -3 -58 -10 -99 -16
-40 -6 -84 -15 -98 -20 -31 -11 -29 -12 -47 6 -41 41 22 65 194 72 63 2 116 5
117 7 8 8 86 5 103 -4z m45 -55 c-13 -6 -401 -55 -428 -55 -58 0 10 14 170 35
159 21 285 30 258 20z m-96 -132 c-1 -96 -2 -97 -10 -38 -4 33 -11 77 -14 98
-4 29 -2 37 10 37 12 0 15 -17 14 -97z m-89 68 c0 -5 -8 -19 -18 -31 l-18 -22
-2 31 c-2 25 1 31 18 31 11 0 20 -4 20 -9z m-228 -73 c-5 -108 -10 -115 -11
-15 0 48 3 87 7 87 4 0 6 -33 4 -72z m98 60 c0 -16 -41 -58 -57 -58 -13 0 -19
51 -6 63 11 12 63 8 63 -5z m68 -10 c-8 -15 -13 -61 -13 -123 0 -89 3 -106 28
-156 62 -127 230 -190 519 -193 163 -2 181 -8 176 -59 -4 -40 -25 -46 -39 -11
-5 16 -16 32 -22 36 -7 4 -59 8 -117 8 -71 0 -110 4 -119 13 -11 10 -12 9 -6
-2 7 -12 -3 -13 -56 -8 -40 3 -53 2 -34 -3 17 -4 95 -9 175 -11 127 -2 135 -3
65 -8 l-80 -6 63 -9 c42 -5 62 -12 62 -22 0 -8 7 -14 15 -14 19 0 19 -14 0
-30 -8 -7 -13 -16 -10 -20 12 -19 -122 -44 -230 -44 -158 0 -272 29 -339 85
-94 79 -111 91 -61 44 45 -43 47 -46 17 -31 -44 23 -84 88 -115 189 -46 147
-51 187 -28 239 22 53 36 65 49 43 7 -13 11 -7 21 25 7 23 14 40 17 38 2 -2
-1 -20 -6 -39 -13 -44 -13 -94 1 -142 15 -54 18 -43 8 33 -12 96 18 200 58
200 11 0 12 -4 1 -22z m89 -101 c6 -83 -12 -54 -21 33 -5 50 -4 61 5 47 6 -11
13 -47 16 -80z m1474 -6 c16 -16 29 -37 29 -45 0 -17 -10 -9 -67 51 -34 36 2
30 38 -6z m-901 -435 c9 -24 3 -66 -9 -66 -4 0 -3 -20 3 -45 11 -45 11 -45 69
-57 47 -10 61 -17 68 -36 11 -28 3 -67 -17 -83 -19 -15 -30 -4 -15 15 10 12 9
13 -9 9 -16 -4 -20 -11 -16 -27 3 -11 6 -30 6 -41 0 -17 3 -16 24 10 17 20 28
27 35 20 6 -6 19 -64 29 -130 18 -109 18 -123 4 -152 -8 -18 -19 -30 -24 -27
-12 8 -10 -3 7 -36 15 -29 35 -40 35 -19 0 5 -4 8 -9 5 -15 -10 -23 28 -8 39
8 5 17 20 21 32 8 26 -33 303 -44 303 -5 0 -6 9 -3 20 14 54 31 -3 65 -225 20
-131 40 -241 45 -245 4 -4 29 -15 56 -24 62 -23 77 -49 46 -82 -26 -28 -40
-29 -101 -8 -78 26 -79 29 -144 328 -14 66 -36 159 -48 208 -13 48 -20 88 -15
88 4 0 10 -8 13 -17 4 -15 4 -14 3 2 -2 14 -10 20 -37 21 -33 2 -277 82 -254
83 6 1 37 -8 69 -19 43 -15 61 -17 71 -9 8 6 25 8 40 5 17 -5 23 -3 19 4 -3 5
-12 10 -18 10 -7 0 -13 12 -14 27 -1 25 0 26 12 10 17 -24 39 -23 26 2 -6 10
-7 21 -4 25 3 3 0 6 -7 6 -10 0 -9 5 3 18 18 20 23 57 8 66 -5 4 -7 -3 -4 -14
6 -24 0 -25 -23 -3 -15 16 -15 17 2 24 30 12 34 10 44 -15z m746 -136 c-2 -69
-9 -127 -18 -145 -35 -76 -81 -144 -118 -174 -22 -17 -42 -42 -46 -55 -4 -15
-30 -37 -82 -66 -89 -51 -132 -80 -132 -92 0 -4 85 35 190 87 104 52 193 95
197 95 16 0 -66 -46 -227 -127 -91 -45 -157 -83 -147 -83 16 0 17 -2 3 -15
-31 -31 -73 -15 -85 34 -19 71 -49 317 -47 395 l1 79 95 47 c52 26 163 75 245
108 184 74 177 78 171 -88z m-396 16 c0 -2 -28 -13 -62 -26 -90 -32 -89 -30
-83 -124 3 -59 2 -70 -4 -41 -14 68 -19 122 -12 134 10 15 161 69 161 57z
m443 -301 c-3 -9 -174 -103 -207 -114 -21 -7 49 61 72 70 13 5 30 26 39 46 8
21 24 49 34 62 11 13 27 49 37 80 l17 56 6 -95 c3 -52 4 -99 2 -105z m-824
143 c30 4 45 -15 35 -42 -15 -39 -59 -20 -67 29 -2 17 -2 25 0 19 2 -6 16 -9
32 -6z m-47 -35 c-6 -2 -9 -9 -6 -15 4 -6 -1 -8 -13 -4 -11 3 -72 -10 -137
-30 -103 -31 -143 -37 -124 -19 3 3 65 21 139 39 126 32 171 41 141 29z m15
-250 c-1 -43 -3 -8 -3 77 0 85 2 120 3 78 2 -43 2 -113 0 -155z m39 115 l9
-93 3 93 c2 52 7 92 13 92 12 0 1 -291 -13 -305 -9 -10 -40 4 -39 18 1 4 1 70
1 147 0 77 4 140 9 140 5 0 12 -42 17 -92z m74 -99 l0 -122 43 7 c29 4 38 3
27 -4 -8 -5 -42 -9 -75 -8 -33 0 -47 3 -31 5 l28 5 -3 119 c-2 65 -1 119 4
119 4 0 7 -55 7 -121z m-130 -7 c0 -119 8 -127 130 -127 58 0 83 -3 72 -9 -20
-11 -98 -13 -134 -3 -24 6 -27 4 -30 -20 -3 -27 -22 -44 -129 -117 l-43 -29
22 -17 c32 -27 201 -53 187 -30 -3 6 1 10 10 10 9 0 13 -4 10 -10 -10 -16 15
-12 31 5 20 20 80 20 92 -1 8 -13 19 -13 112 6 57 12 109 24 114 27 8 4 8 2 1
-5 -6 -6 -39 -19 -75 -29 -52 -14 -102 -18 -245 -18 -167 1 -186 3 -268 28
-297 92 -303 281 -12 378 33 11 46 18 30 15 -51 -8 -141 -45 -184 -77 -74 -53
-92 -104 -68 -194 20 -76 20 -76 -2 -82 -30 -8 -27 -14 25 -47 39 -25 56 -29
132 -31 48 -2 89 1 92 6 4 5 32 4 70 -2 105 -18 314 -16 395 4 111 28 154 47
157 70 5 33 49 39 118 15 57 -19 84 -37 38 -25 -15 4 -30 -1 -45 -15 -21 -19
-27 -20 -63 -9 -33 10 -44 9 -63 -4 -13 -8 -57 -24 -99 -34 -86 -22 -105 -32
-132 -69 l-19 -25 39 6 c21 4 49 7 61 7 16 0 21 4 17 15 -4 8 -1 15 5 15 6 0
11 -4 11 -10 0 -5 7 -10 15 -10 8 0 12 6 9 14 -7 19 52 39 77 25 15 -8 31 -4
71 16 28 14 56 24 62 21 19 -7 -96 -54 -199 -81 -75 -19 -132 -27 -225 -29
-147 -5 -228 4 -342 37 -153 45 -239 101 -279 183 -65 135 75 268 341 325 47
9 91 18 98 18 9 1 12 -23 12 -87z m1106 18 c156 -52 189 -60 255 -60 42 0 98
7 124 15 27 8 51 13 53 11 2 -2 -33 -30 -78 -61 -45 -31 -84 -55 -86 -52 -3 3
13 18 35 33 42 27 55 42 22 25 -10 -6 -22 -7 -26 -3 -5 4 -5 1 -1 -6 6 -9 2
-12 -10 -10 -12 2 -18 -2 -16 -10 1 -8 -3 -12 -10 -9 -7 2 -12 9 -11 15 2 7
-4 9 -14 5 -10 -4 -14 -2 -10 4 10 16 -38 7 -65 -11 -32 -23 -48 -19 -18 4 18
15 20 18 6 13 -15 -5 -17 -3 -11 7 5 9 0 7 -16 -3 -34 -24 -49 -21 -19 4 l25
21 -35 -20 c-19 -11 -98 -58 -175 -105 -81 -50 -142 -81 -146 -76 -4 6 -30 -4
-65 -26 -37 -22 -48 -27 -30 -12 37 32 111 74 101 57 -6 -9 -3 -10 16 0 55 28
275 164 289 178 17 17 25 22 -98 -52 -35 -21 -66 -36 -68 -33 -3 3 26 24 65
47 72 43 96 63 40 35 -39 -21 -50 -12 -12 10 26 15 23 15 -24 -1 -15 -5 -15
-3 1 10 28 22 14 20 -29 -5 -20 -12 -38 -19 -41 -16 -3 3 8 13 25 22 17 8 31
18 31 21 0 2 -14 -3 -31 -11 -39 -21 -50 -12 -12 10 24 13 25 15 4 9 -17 -4
-21 -3 -16 6 4 7 -5 5 -23 -4 -42 -22 -52 -20 -22 4 18 15 20 18 6 13 -14 -4
-17 -3 -12 6 5 7 -10 3 -33 -8 -23 -12 -41 -24 -41 -26 0 -3 14 2 31 10 17 9
33 14 36 11 3 -2 -13 -14 -35 -25 -33 -17 -41 -18 -46 -6 -3 8 -1 17 3 19 5 3
6 17 4 31 -7 31 2 55 20 55 8 0 95 -27 193 -60z m-246 14 c-24 -14 -24 -15 -2
-11 12 3 20 1 16 -4 -3 -5 1 -9 8 -9 7 0 5 -5 -6 -11 -12 -8 -15 -14 -7 -18 6
-4 -64 -49 -156 -101 -188 -107 -189 -107 -178 -90 5 9 2 10 -15 5 -16 -5 -20
-4 -15 5 5 9 2 10 -12 6 -11 -4 -30 -3 -42 1 -17 7 5 22 137 95 86 48 184 100
217 117 63 32 98 41 55 15z m155 -52 c-25 -22 -124 -71 -127 -63 -1 5 -43 -14
-91 -42 -48 -27 -86 -52 -83 -54 2 -3 40 16 84 41 43 25 83 46 88 46 5 -1 -4
-8 -19 -16 -16 -9 -26 -18 -23 -21 3 -3 26 9 52 26 44 29 64 37 64 27 0 -3
-25 -19 -56 -36 -30 -18 -53 -35 -50 -37 3 -3 12 0 21 7 9 7 18 10 21 8 3 -3
-11 -16 -31 -28 -20 -12 -34 -25 -30 -28 3 -3 18 4 34 16 47 34 202 124 207
119 2 -2 -60 -43 -138 -90 -79 -47 -152 -93 -163 -102 -40 -33 15 -7 87 41 38
26 71 44 74 41 6 -5 -160 -112 -191 -123 -20 -7 -20 -7 0 10 21 18 19 18 -32
0 -15 -6 -14 -4 2 10 21 18 19 18 -32 0 -15 -6 -14 -4 2 10 17 15 17 17 3 12
-48 -16 -51 -16 -25 -1 38 22 28 31 -12 11 -53 -28 -48 -17 7 15 29 17 51 33
49 36 -3 2 -30 -10 -61 -27 -31 -18 -56 -29 -56 -26 0 3 25 20 55 37 31 17 54
34 51 36 -2 3 -32 -12 -66 -31 -35 -20 -64 -35 -67 -33 -2 3 58 41 134 85 172
99 183 105 190 98 3 -3 18 1 34 9 33 18 43 19 34 5 -9 -15 7 -12 29 5 21 16
47 21 31 7z m5 -46 c0 -7 -112 -67 -116 -63 -3 3 19 18 48 35 51 30 68 37 68
28z m70 -10 c0 -3 -25 -19 -55 -36 -56 -32 -70 -46 -35 -35 11 3 20 4 20 2 0
-8 -122 -78 -128 -73 -2 3 10 13 27 23 18 10 40 24 49 31 15 11 14 12 -8 6
-34 -9 -22 2 52 47 60 36 78 44 78 35z m130 -26 c-27 -21 -45 -26 -35 -10 4 6
-1 7 -11 3 -13 -5 -14 -8 -5 -11 8 -3 -6 -17 -33 -34 -26 -16 -51 -26 -56 -23
-6 4 -20 -1 -32 -9 -14 -10 -17 -16 -8 -16 10 0 7 -5 -7 -15 -12 -8 -30 -12
-40 -9 -13 4 -14 3 -5 -4 10 -7 5 -14 -23 -31 -41 -24 -60 -28 -31 -6 11 8 16
15 10 15 -5 0 -20 -9 -34 -20 -18 -15 -20 -18 -6 -13 14 5 17 3 11 -6 -6 -10
-3 -11 13 -2 33 17 39 12 12 -9 -18 -15 -20 -18 -6 -13 13 4 17 3 12 -5 -5 -8
-1 -10 10 -5 13 5 15 3 9 -8 -9 -13 10 -3 70 38 34 23 41 14 10 -13 l-30 -26
32 21 c36 24 47 27 37 9 -4 -8 -3 -10 2 -5 5 5 9 14 9 20 0 5 6 12 14 15 9 3
11 0 6 -8 -5 -9 -4 -11 4 -6 6 4 8 12 5 18 -5 7 -2 9 8 5 9 -3 24 1 35 9 17
14 16 14 -6 4 -16 -8 -21 -9 -17 -1 4 6 2 11 -4 11 -6 0 -8 5 -4 12 4 7 3 8
-4 4 -7 -4 -20 -2 -29 4 -17 11 -17 11 0 6 24 -8 44 4 27 14 -8 5 -3 7 13 7
14 -1 23 -5 20 -9 -2 -5 0 -8 6 -8 5 0 13 5 16 10 3 6 12 10 18 10 7 0 3 -7
-7 -15 -15 -11 -16 -15 -5 -16 11 0 11 -2 0 -6 -10 -4 -10 -7 -1 -13 7 -4 -9
-21 -45 -45 -31 -20 -54 -42 -52 -48 14 -39 17 -57 9 -57 -5 0 -15 13 -22 30
-11 25 -16 29 -39 23 -35 -8 -36 -10 -17 -28 17 -18 22 -45 7 -45 -5 0 -12 10
-16 23 -6 22 -6 22 -16 -4 -11 -29 -33 -39 -90 -39 -43 0 -61 26 -33 47 16 12
16 13 -7 13 -13 0 -35 3 -49 5 -14 3 -19 3 -12 -1 17 -8 15 -44 -3 -44 -9 0
-49 10 -90 22 -56 16 -74 26 -70 36 5 13 3 13 -11 1 -15 -12 -17 -12 -12 1 2
8 16 21 31 28 23 11 36 10 93 -8 36 -11 79 -20 96 -20 16 0 37 -4 46 -8 9 -5
28 -6 42 -2 l25 7 -28 8 c-28 7 -62 56 -49 71 4 4 -14 -5 -40 -20 -27 -15 -48
-25 -48 -22 0 11 64 49 86 52 13 1 87 41 165 88 77 48 144 84 150 81 5 -3 17
-1 26 4 29 17 30 12 3 -9z m135 -20 c-4 -6 -1 -10 5 -10 6 0 9 -4 6 -9 -3 -4
6 -6 19 -3 14 2 25 0 25 -5 0 -26 -182 -163 -217 -163 -31 0 -29 10 12 50 19
18 32 36 30 39 -3 2 21 21 52 42 31 21 58 45 59 54 1 9 -3 14 -9 12 -7 -2 -12
-10 -12 -17 0 -7 -7 -15 -15 -17 -13 -4 -13 -3 0 6 13 10 13 11 0 11 -12 0
-12 2 -2 9 11 6 10 10 -4 15 -9 3 -19 4 -22 1 -3 -3 1 -5 9 -5 12 0 12 -2 0
-9 -8 -5 -21 -7 -30 -4 -14 4 -14 3 -1 -6 18 -13 1 -15 -19 -2 -8 5 -21 7 -28
4 -12 -5 -12 -7 -1 -15 10 -8 10 -9 -2 -5 -12 3 -70 -18 -70 -26 0 -1 12 -3
27 -4 16 0 21 2 13 7 -8 5 -3 8 14 8 14 0 23 -4 20 -9 -3 -5 3 -6 13 -2 11 4
15 2 10 -3 -5 -5 -34 -9 -65 -9 -32 0 -56 -5 -55 -10 1 -6 -10 -11 -23 -11
-13 -1 -21 2 -18 7 3 5 -3 6 -12 2 -12 -4 -15 -3 -10 6 5 7 15 10 23 7 9 -4
43 11 79 34 35 22 69 38 76 35 7 -3 26 4 42 14 27 18 32 18 58 5 16 -8 26 -19
23 -24z m-82 -21 c16 16 26 14 23 -5 -1 -8 -22 -28 -47 -45 -24 -16 -38 -29
-31 -29 7 0 10 -4 7 -10 -10 -16 -23 -12 -21 6 1 8 15 23 30 34 26 16 27 18 9
24 -11 4 -20 13 -20 21 0 11 5 12 20 4 13 -8 22 -8 30 0z m-1190 -47 c-3 -9
-21 -37 -40 -61 -22 -30 -31 -51 -27 -64 4 -13 2 -17 -5 -13 -21 13 -11 49 24
92 19 23 35 50 35 59 0 9 4 14 10 10 5 -3 6 -13 3 -23z m132 -26 c7 -21 26
-51 41 -67 36 -38 25 -47 -34 -26 -43 15 -52 15 -102 2 -30 -8 -61 -15 -67
-15 -19 0 -16 25 6 44 11 10 25 32 32 49 19 49 27 55 70 53 38 -1 42 -4 54
-40z m883 -15 l34 -17 -26 -17 c-29 -19 -40 -22 -31 -7 11 17 -5 11 -50 -20
-25 -17 -50 -27 -59 -24 -16 6 -12 24 5 24 6 0 7 -4 4 -10 -4 -6 1 -7 11 -3
14 5 13 8 -6 18 -22 12 -21 13 26 43 27 17 51 31 54 31 3 0 20 -8 38 -18z
m-1417 -39 c15 -13 62 -38 105 -57 87 -38 87 -47 0 -15 -65 25 -131 71 -146
102 -9 20 -9 21 2 8 8 -8 25 -25 39 -38z m1059 -186 c0 -17 5 -37 11 -43 13
-13 4 -33 -17 -33 -11 0 -14 15 -14 61 0 37 4 58 10 54 6 -3 10 -21 10 -39z"/>
<path d="M1110 2387 c48 -114 84 -251 109 -412 16 -106 19 -116 26 -82 8 40 1
112 -20 222 -8 39 -17 85 -20 103 -11 64 -100 252 -123 260 -6 2 6 -39 28 -91z"/>
<path d="M490 2448 c0 -3 13 -35 28 -70 36 -79 96 -258 89 -264 -3 -3 -17 32
-32 78 -38 115 -95 248 -107 248 -6 0 -8 -6 -5 -12 50 -110 91 -229 112 -324
0 -1 23 -4 50 -8 34 -4 43 -3 29 3 -14 6 -25 25 -33 58 -19 73 -90 249 -111
275 -11 13 -19 20 -20 16z"/>
<path d="M831 2065 c0 -11 4 -29 8 -39 7 -18 8 -18 14 4 4 16 1 30 -8 40 -13
13 -15 12 -14 -5z"/>
<path d="M1593 1813 c-24 -2 -43 -8 -43 -12 0 -4 24 -4 53 0 28 4 66 10 82 12
39 5 -32 5 -92 0z"/>
<path d="M1393 1787 c-79 -11 -141 -23 -138 -25 8 -8 285 31 285 40 0 4 -1 7
-2 7 -2 -1 -67 -11 -145 -22z"/>
<path d="M1540 1775 c-41 -7 -61 -13 -45 -13 17 0 66 5 110 13 44 7 64 13 45
13 -19 -1 -69 -6 -110 -13z"/>
<path d="M1989 1786 c-3 -4 -46 -18 -95 -32 -179 -50 -229 -66 -249 -74 -11
-5 -29 -10 -40 -12 -14 -2 -21 -12 -23 -32 -4 -30 15 -86 29 -86 9 0 1 55 -12
82 -15 29 -9 34 11 9 13 -14 20 -38 20 -63 0 -34 2 -39 15 -28 8 6 18 9 23 6
13 -8 -3 80 -18 98 -7 9 -8 16 -2 16 16 0 33 -26 39 -64 3 -21 11 -36 19 -36
20 0 18 70 -3 99 -12 18 -13 23 -2 19 19 -6 39 -47 39 -80 0 -20 5 -26 18 -25
16 1 17 7 12 43 -4 24 -13 51 -21 60 -12 15 -12 17 1 12 20 -6 40 -46 40 -80
0 -20 4 -26 15 -22 20 8 19 63 -1 92 -21 30 -13 38 11 12 10 -11 18 -36 19
-58 0 -28 4 -38 13 -35 18 7 16 69 -3 99 -14 21 -15 24 -1 18 21 -8 40 -58 35
-89 -5 -22 -3 -24 21 -18 14 3 31 8 36 12 6 3 15 6 20 6 46 4 61 58 29 103
-19 28 -13 39 10 17 10 -10 16 -33 16 -63 0 -42 1 -44 15 -26 8 10 14 30 15
44 0 26 -41 86 -51 76z m-29 -62 c6 -14 10 -40 9 -57 l-1 -32 -10 35 c-5 19
-14 43 -19 52 -12 23 -11 28 1 28 6 0 15 -12 20 -26z m-50 -3 c5 -11 9 -37 9
-58 l-1 -38 -7 35 c-4 19 -13 45 -20 58 -7 13 -8 22 -2 22 6 0 15 -9 21 -19z"/>
<path d="M1525 1749 c-77 -12 -89 -16 -40 -11 90 8 141 8 185 -3 44 -10 33 4
-12 16 -26 7 -20 8 27 4 43 -3 51 -1 30 4 -43 12 -66 11 -190 -10z"/>
<path d="M1315 1745 c-38 -7 -56 -13 -40 -13 17 0 64 5 105 13 41 7 59 13 40
13 -19 0 -66 -6 -105 -13z"/>
<path d="M1080 1727 c8 -8 101 -23 205 -31 33 -3 94 -8 135 -12 103 -8 80 11
-30 25 -107 13 -317 26 -310 18z"/>
<path d="M1525 1720 c17 -4 41 -8 55 -8 l25 0 -25 8 c-14 4 -38 8 -55 8 l-30
0 30 -8z"/>
<path d="M741 1709 c-52 -11 -48 -19 10 -19 30 0 99 -7 154 -15 55 -9 116 -13
135 -10 26 4 31 3 20 -5 -11 -7 2 -9 45 -5 l60 4 -50 -13 c-59 -16 -31 -20 35
-5 51 12 151 2 129 -12 -8 -5 -30 -8 -49 -8 -33 1 -33 2 -10 10 20 7 17 8 -15
4 -22 -3 -49 -5 -60 -6 -11 -1 0 -5 25 -10 25 -4 72 -6 105 -3 51 5 64 3 88
-16 15 -12 27 -25 27 -30 0 -5 -11 2 -25 15 -16 17 -34 25 -57 24 l-33 -1 35
-8 c44 -11 67 -40 76 -96 4 -30 10 -42 16 -36 11 11 6 86 -6 115 -7 15 -2 17
43 17 56 0 62 -7 31 -35 -30 -28 -60 -102 -60 -149 l1 -41 13 37 c20 55 61
120 95 151 35 30 37 39 17 60 -10 10 -34 13 -83 11 -37 -1 -88 4 -113 11 -73
23 -165 36 -340 50 -41 3 -109 9 -151 13 -41 4 -90 5 -108 1z"/>
<path d="M1465 1709 c51 -10 92 -10 50 1 -16 4 -43 8 -60 8 -25 0 -24 -2 10
-9z"/>
<path d="M698 1670 c-10 -6 -23 -21 -29 -33 l-11 -22 21 23 c27 27 46 28 103
2 25 -11 101 -29 169 -40 312 -50 334 -59 397 -158 39 -61 42 -64 37 -32 -9
51 -46 121 -75 142 -31 22 -142 48 -370 87 -96 16 -186 32 -200 35 -14 3 -33
1 -42 -4z"/>
<path d="M1838 1444 c-4 -3 -12 -7 -20 -9 -52 -12 -58 -18 -58 -51 0 -19 2
-34 4 -34 14 0 36 35 37 58 1 23 3 22 8 -7 6 -33 7 -34 24 -17 9 10 17 28 17
42 0 25 -2 28 -12 18z"/>
<path d="M1734 1412 c-6 -4 -14 -24 -18 -45 -7 -36 -6 -38 13 -27 15 8 21 21
21 45 0 38 0 38 -16 27z"/>
<path d="M1675 1388 c-2 -7 -5 -26 -8 -41 -3 -22 -1 -27 12 -25 19 4 30 78 11
78 -6 0 -12 -6 -15 -12z"/>
<path d="M1620 1343 c0 -57 24 -54 28 4 2 30 -1 40 -13 40 -11 0 -15 -11 -15
-44z"/>
<path d="M1578 1340 c-22 -39 -111 -71 -215 -77 -89 -6 -106 -17 -45 -27 66
-11 105 -7 182 19 93 31 95 33 103 72 8 42 -4 49 -25 13z"/>
<path d="M410 2269 c0 -5 5 -7 11 -3 26 16 38 -45 14 -69 -10 -11 -13 -25 -8
-47 3 -19 9 -27 13 -20 4 7 5 20 3 30 -7 27 16 34 27 8 9 -21 10 -20 5 7 -16
82 -26 105 -45 105 -11 0 -20 -5 -20 -11z"/>
<path d="M560 1536 c14 -16 45 -42 69 -57 25 -16 40 -29 35 -29 -6 0 -19 7
-30 15 -27 20 -36 18 -22 -4 10 -17 9 -24 -7 -42 -19 -21 -17 -20 27 4 l46 26
62 -20 c70 -22 90 -24 90 -8 0 5 -4 7 -10 4 -13 -8 -90 15 -90 27 0 5 -4 7
-10 3 -13 -8 -101 38 -147 77 -36 30 -36 30 -13 4z"/>
<path d="M778 1399 c29 -16 28 -27 -13 -74 -26 -30 -37 -37 -44 -27 -6 10 -17
11 -42 4 l-34 -9 55 -16 c30 -9 69 -19 85 -22 26 -5 27 -4 8 4 -30 14 -29 20
13 69 40 47 66 57 36 15 -37 -54 -34 -58 9 -15 25 23 51 43 59 43 8 1 -12 7
-45 14 -33 6 -71 15 -85 18 -24 7 -25 7 -2 -4z"/>
<path d="M1415 700 c3 -30 5 -70 5 -88 0 -20 5 -31 13 -30 7 2 12 -9 12 -29 0
-18 3 -33 7 -33 3 0 14 -3 23 -7 16 -6 16 -5 1 20 -14 21 -15 30 -6 48 10 19
10 21 -3 16 -19 -7 -26 8 -43 93 l-13 65 4 -55z"/>
<path d="M1487 583 c-4 -3 7 -15 24 -25 17 -10 27 -23 23 -29 -4 -8 -9 -7 -15
2 -6 10 -9 8 -9 -8 0 -28 25 -30 40 -4 13 26 5 46 -26 60 -29 13 -29 13 -37 4z"/>
<path d="M1131 663 c-1 -18 -65 -47 -146 -67 -117 -29 -144 -59 -80 -89 41
-20 49 -21 40 -7 -14 22 25 57 93 83 73 29 108 57 99 79 -4 9 -6 10 -6 1z"/>
<path d="M1046 388 c-34 -18 -37 -22 -20 -28 10 -4 47 -11 81 -15 53 -6 66 -4
102 17 22 12 41 26 41 31 0 4 -17 7 -39 7 -21 0 -58 2 -82 4 -32 3 -55 -1 -83
-16z"/>
<path d="M1330 369 c-32 -26 -33 -28 -13 -29 13 0 29 11 39 25 24 36 14 38
-26 4z"/>
<path d="M1905 792 c-27 -16 -110 -61 -183 -101 -73 -41 -131 -76 -128 -78 2
-3 13 0 24 6 26 14 35 14 27 1 -10 -16 6 -12 52 16 25 14 47 23 50 21 3 -3
-14 -15 -37 -27 -23 -12 -40 -24 -37 -26 4 -4 302 159 317 174 3 2 -5 1 -17
-2 -31 -10 -29 0 5 19 24 14 24 15 3 9 -16 -4 -21 -3 -17 5 11 18 -5 13 -59
-17z m22 -13 c-22 -11 -37 -23 -34 -26 3 -2 14 0 25 6 12 6 24 11 29 11 4 0
-36 -25 -91 -56 -54 -30 -100 -53 -103 -51 -2 3 27 22 66 43 39 21 68 40 66
42 -2 3 -54 -23 -116 -57 -61 -35 -113 -61 -115 -58 -4 4 123 76 276 158 8 5
20 8 25 8 6 0 -7 -9 -28 -20z"/>
<path d="M2047 749 c-9 -5 -21 -7 -27 -4 -10 6 -194 -95 -186 -102 2 -3 41 16
85 42 45 26 91 48 104 49 24 3 70 25 52 25 -5 0 -18 -4 -28 -10z"/>
<path d="M1887 628 c-37 -22 -66 -43 -63 -45 5 -5 146 76 146 83 0 9 -19 1
-83 -38z"/>
<path d="M1902 611 c-72 -44 -87 -56 -53 -46 16 5 21 4 17 -4 -11 -17 1 -13
50 15 48 29 56 39 22 29 -20 -5 -21 -5 -6 7 9 7 25 18 35 25 10 6 14 12 8 12
-5 0 -38 -17 -73 -38z"/>
<path d="M2152 553 c-31 -18 -40 -28 -30 -34 8 -5 26 0 45 11 18 11 39 17 47
14 8 -3 17 -1 21 5 4 7 0 8 -11 4 -12 -4 -15 -3 -10 5 5 8 1 10 -10 5 -12 -4
-15 -3 -10 5 10 16 8 15 -42 -15z"/>
</g>
</svg>
